<?xml version="1.0" encoding="UTF-8"?><svg xmlns="http://www.w3.org/2000/svg" viewBox="0 0 206 44"><path fill="#fff" d="m136.4,9.11V2.11h69.5V.11H5.4C2.36.11-.1,2.57-.1,5.61v5.5l11,22-4.5,9H-.1v2h7.5l1-2,14.5-29h10v9c0,6.08,4.92,11,11,11,3.72,0,7.01-1.86,9-4.69v4.69h15v-10.33l7.75-5.17,7.75,15.5h22v-11c0-4.96,4.04-9,9-9s9,4.04,9,9v11h26v-10.33l14.5-9.67h4.69c-2.83,1.99-4.69,5.28-4.69,9,0,6.08,4.92,11,11,11,4.45,0,8.27-2.64,10-6.44,1.73,3.79,5.55,6.44,10,6.44,3.72,0,7.01-1.86,9-4.69v10.19c0,1.93-1.57,3.5-3.5,3.5H10.4l-1,2h191c3.04,0,5.5-2.46,5.5-5.5V11.11h-2v4.69c-1.99-2.83-5.28-4.69-9-4.69-4.45,0-8.27,2.64-10,6.44-1.73-3.79-5.55-6.44-10-6.44h-11l-14.5,9.67v-9.67h-2v20h-11V11.11h-2v20h-9v-9c0-6.08-4.92-11-11-11-3.72,0-7.01,1.86-9,4.69V2.11h29v7h2Zm-70.5,13v9h-11V11.11h-2v11c0,4.96-4.04,9-9,9s-9-4.04-9-9v-11h-13l-10,20L1.9,11.11v-5.5c0-1.93,1.57-3.5,3.5-3.5h60.5v20Zm129-9c4.96,0,9,4.04,9,9s-4.04,9-9,9-9-4.04-9-9,4.04-9,9-9Zm-11,9c0,4.96-4.04,9-9,9s-9-4.04-9-9,4.04-9,9-9,9,4.04,9,9Zm-80.5,9h-9V11.11h-2v20h-8l-7.25-14.5,8.25-5.5h-3l-14.5,9.67V2.11h24.5v7h2V2.11h9v29Z"/></svg>